<?xml version="1.0" encoding="UTF-8" standalone="no"?>
<!-- Uploaded to: SVG Repo, www.svgrepo.com, Generator: SVG Repo Mixer Tools -->

<svg
   width="800px"
   height="800px"
   viewBox="0 0 24 24"
   fill="none"
   version="1.1"
   id="svg2"
   sodipodi:docname="shopping-bag.svg"
   xml:space="preserve"
   inkscape:version="1.3.2 (091e20e, 2023-11-25, custom)"
   xmlns:inkscape="http://www.inkscape.org/namespaces/inkscape"
   xmlns:sodipodi="http://sodipodi.sourceforge.net/DTD/sodipodi-0.dtd"
   xmlns="http://www.w3.org/2000/svg"
   xmlns:svg="http://www.w3.org/2000/svg"><defs
     id="defs2" /><sodipodi:namedview
     id="namedview2"
     pagecolor="#ffffff"
     bordercolor="#000000"
     borderopacity="0.25"
     inkscape:showpageshadow="2"
     inkscape:pageopacity="0.0"
     inkscape:pagecheckerboard="0"
     inkscape:deskcolor="#d1d1d1"
     showgrid="false"
     inkscape:zoom="0.523125"
     inkscape:cx="456.86977"
     inkscape:cy="364.15771"
     inkscape:window-width="1920"
     inkscape:window-height="1051"
     inkscape:window-x="-9"
     inkscape:window-y="-9"
     inkscape:window-maximized="1"
     inkscape:current-layer="svg2" /><g
     style="fill:#000000"
     id="g2"
     transform="matrix(-0.00669575,0.03973734,-0.03973734,-0.00669575,19.441034,3.0854398)"><path
       d="m 412.425,108.933 c 0,-30.529 -10.941,-58.18 -30.808,-77.86 -19.841,-19.655 -47.707,-30.48 -78.464,-30.48 -41.3,0 -83.913,18.749 -116.913,51.438 -30.319,30.034 -48.754,68.115 -51.573,105.858 -0.845,5.398 -1.634,11.13 -2.462,17.188 -4.744,34.686 -10.603,77.415 -34.049,104.503 -2.06,0.333 -3.981,1.295 -5.476,2.789 L 7.603,367.447 c -10.137,10.138 -10.137,26.632 0,36.77 4.911,4.911 11.44,7.615 18.385,7.615 6.945,0 13.474,-2.705 18.386,-7.617 l 85.06,-85.095 c 1.535,-1.536 2.457,-3.448 2.784,-5.438 27.087,-23.461 69.829,-29.322 104.524,-34.068 6.549,-0.896 12.734,-1.741 18.508,-2.666 1.434,-0.23 2.743,-0.76 3.885,-1.507 36.253,-4.047 72.464,-21.972 101.325,-50.562 33.025,-32.713 51.965,-74.974 51.965,-115.946 z M 145.476,218.349 c 4.984,10.244 11.564,19.521 19.608,27.49 8.514,8.434 18.51,15.237 29.576,20.262 -25.846,5.238 -52.769,13.823 -73.415,30.692 l -6.216,-6.216 c 16.61,-20.331 25.188,-46.746 30.447,-72.228 z M 30.23,390.075 c -1.133,1.133 -2.64,1.757 -4.242,1.757 -1.603,0 -3.109,-0.624 -4.243,-1.757 -2.339,-2.339 -2.339,-6.146 0,-8.485 l 78.006,-78.007 8.469,8.469 z M 243.559,256.318 c -0.002,0 -0.008,0 -0.011,0 -25.822,-0.003 -48.087,-8.54 -64.389,-24.688 -16.279,-16.126 -24.883,-38.136 -24.883,-63.652 0,-2.596 0.1,-5.201 0.276,-7.808 0.023,-0.143 0.045,-0.295 0.068,-0.438 0.11,-0.685 0.147,-1.364 0.117,-2.031 2.87,-32.422 19.121,-65.253 45.579,-91.461 29.284,-29.009 66.767,-45.646 102.837,-45.646 25.819,0 48.085,8.537 64.389,24.689 16.279,16.126 24.883,38.136 24.883,63.651 -0.001,35.672 -16.781,72.755 -46.04,101.739 -29.285,29.009 -66.761,45.646 -102.826,45.645 z"
       id="path1-3" /></g><rect
     style="fill:#ffffff;stroke:#ffffff;stroke-width:0.03"
     id="rect2"
     width="13.820789"
     height="11.870968"
     x="6.0788531"
     y="9.5197134" /><path
     d="m 5.7755127,11.083169 c 0.08016,-1.042 0.94904,-1.8466099 1.99411,-1.8466099 H 18.065463 c 1.0451,0 1.914,0.8046099 1.9941,1.8466099 l 0.5267,6.84659 c 0.1787,2.3232 -1.6582,4.3068 -3.9882,4.3068 H 9.2370727 c -2.33004,0 -4.16692,-1.9836 -3.98822,-4.3068 z"
     stroke="#000000"
     stroke-width="2"
     id="path1" /><path
     d="M 15.917563,13.236559 V 8.2365591 c 0,-1.65685 -1.3431,-3 -3,-3 v 0 c -1.6569,0 -3.0000003,1.34315 -3.0000003,3 v 4.9999999"
     stroke="#000000"
     stroke-width="2"
     stroke-linecap="round"
     id="path2" /></svg>
